<svg xmlns="http://www.w3.org/2000/svg" viewBox="0 0 24.45 26.18"><defs><style>.cls-1{fill:#fff;}</style></defs><title>Ativo 1</title><g id="Camada_2" data-name="Camada 2"><g id="Camada_1-2" data-name="Camada 1"><path class="cls-1" d="M23.91,25.83a1.45,1.45,0,0,1-1.5.25l1.95-1.7A1.44,1.44,0,0,1,23.91,25.83Z"/><path class="cls-1" d="M22.24,25.64c-1.54,1.34-2.71-1.37-2.71-1.37l-2.58-4a11.65,11.65,0,0,0,1.28-1,11,11,0,0,0,1.13-1.14l3.6,3.1s2.53,1.52,1,2.86Z"/><path class="cls-1" d="M18.2,4.19a9.93,9.93,0,1,0-.94,14A9.93,9.93,0,0,0,18.2,4.19Zm.6-.52a10.72,10.72,0,1,1-15.13-1A10.72,10.72,0,0,1,18.8,3.67Z"/></g></g></svg>