<svg xmlns="http://www.w3.org/2000/svg" viewBox="0 0 437.36 122.9"><defs><style>.cls-1,.cls-2{fill:#fff;}.cls-1{fill-rule:evenodd;}.cls-3{fill:#fdbc21;}.cls-4{fill:#538e3f;}</style></defs><title>logo-branca-br</title><g id="Camada_2" data-name="Camada 2"><g id="Camada_2-2" data-name="Camada 2"><path class="cls-1" d="M0,25.15H72.78V50h-46V62.74H60v22.4H26.79V97.93H73.58v24.8H0Z"/><path class="cls-1" d="M192.75,25.15c16.87.36,33-.66,47.19.4,27.09,2,47.47,19.91,47.58,48.39.09,22-11.34,36.77-28,44-14.64,6.35-42.22,4.8-67.18,4.8V25.2C192.43,25.15,192.58,25.18,192.75,25.15ZM219.14,50v48c16.5.65,30,0,36.79-8.39,7.79-9.68,5.16-26.74-3.2-33.59-7.94-6.52-19.53-6.26-33.19-6A2.82,2.82,0,0,1,219.14,50Z"/><path class="cls-1" d="M161.41,62.06a45.66,45.66,0,0,0,5.53-20.53h-.29a61.17,61.17,0,0,0-11.83,2.84q-3.6-9.65-7.26-19.22h-30C104.88,57.25,92.8,90,80.78,122.73h28c1.55-4.59,2.77-9.5,4.8-13.6h37.59c1.23,4.77,3.23,8.77,4.4,13.6h28.79C176.5,102.8,169,82.41,161.41,62.06Zm-8.36,11.68a6.1,6.1,0,0,0-.88.88,4.84,4.84,0,0,1-.81.82,5.7,5.7,0,0,0-.89.88,61.93,61.93,0,0,1-34.21,16V90.73c1.22-13.51,6.8-22.66,13.74-30.44a3.71,3.71,0,0,0,.74-.74,16.69,16.69,0,0,1,1.33-1.33,3.94,3.94,0,0,0,.74-.73,62.91,62.91,0,0,1,8.94-6.87c.05,7.46-.1,15.11.08,22.45h11.59C153.76,73.2,153.12,73.52,153.05,73.74Z"/><ellipse class="cls-2" cx="295.29" cy="111.35" rx="11.65" ry="11.38"/><path class="cls-3" d="M437.36,56s-22.75,3.9-24,22v44.73H397l-.33-32.08s-2.87-25.37,9.15-37.58c0,0,12.91-14.31,31.57-13.42Z"/><path class="cls-4" d="M323.81,81.49c0,13.58,11.29,24.58,25.23,24.58s25.23-11,25.23-24.58-8.83-22.7-24.55-25.25a38.83,38.83,0,0,0-6.65.12l-4-15.59c1.21-.1,5.5-1.83,10.35-1.83a41.1,41.1,0,0,1,41.41,41.58,41.89,41.89,0,1,1-83.77,0V25.82a20.41,20.41,0,0,1,5.43-15.21L322.24,0l2.05,1Z"/></g></g></svg>