<svg xmlns="http://www.w3.org/2000/svg" viewBox="0 0 45.85 45.85"><defs><style>.cls-1{fill:#f7f7f7;fill-rule:evenodd;}</style></defs><title>seta-1</title><g id="Camada_2" data-name="Camada 2"><g id="Camada_1-2" data-name="Camada 1"><path class="cls-1" d="M22.92,0A22.93,22.93,0,1,0,45.85,22.92,22.92,22.92,0,0,0,22.92,0Zm9.75,27.33L23.5,36.5a.8.8,0,0,1-.58.24.78.78,0,0,1-.58-.24l-9.16-9.17a.8.8,0,0,1-.24-.57.82.82,0,0,1,1.4-.58L22.11,34V12.14a.82.82,0,1,1,1.63,0V34l7.77-7.77a.82.82,0,0,1,1.16,0A.81.81,0,0,1,32.67,27.33Z"/></g></g></svg>